<?xml version="1.0" encoding="UTF-8"?> <svg xmlns="http://www.w3.org/2000/svg" width="27" height="28" viewBox="0 0 27 28" fill="none"><path d="M26.8785 25.9715C26.8785 26.7777 26.2193 27.4374 25.4137 27.4374H18.5293V17.0291H22.0448L22.5574 12.9977H18.5293V10.4323C18.5293 9.25955 18.8223 8.45328 20.5068 8.45328H22.6307V4.78838C22.2645 4.71509 21.0194 4.64179 19.4814 4.64179C16.4054 4.64179 14.2815 6.54753 14.2815 9.99253V12.9977H10.7661V17.0291H14.2815V27.4374H1.46485C0.659235 27.4374 9.15527e-05 26.7777 9.15527e-05 25.9715V2.00307C9.15527e-05 1.19679 0.659235 0.537109 1.46485 0.537109H25.4137C26.2193 0.537109 26.8785 1.19679 26.8785 2.00307V25.9715Z" fill="#00B3FF"></path></svg> 