<?xml version="1.0" encoding="UTF-8"?> <svg xmlns="http://www.w3.org/2000/svg" width="39" height="28" viewBox="0 0 39 28" fill="none"><path d="M20.0566 27.5371C15.8151 27.3689 11.7399 27.2848 7.66475 27.1166C6.74991 27.1166 5.91824 26.9483 5.08657 26.7801C3.5064 26.4437 2.34206 25.4343 1.84306 23.8362C1.42722 22.5745 1.26089 21.2287 1.09455 19.8829C0.845052 16.6866 0.845052 13.5745 0.928219 10.3782C1.01139 8.61188 1.01139 6.76141 1.51039 5.07917C1.75989 4.06982 2.17572 3.06047 3.0074 2.30346C3.92223 1.54646 4.92024 1.04178 6.08458 0.95767C9.24492 0.789446 12.4884 0.621222 15.6488 0.537109C19.9735 0.537109 24.2982 0.537109 28.5397 0.621222C30.3694 0.621222 32.2822 0.789446 34.1119 0.95767C35.7752 1.21001 37.1059 2.13524 37.7712 3.81748C38.2702 5.07917 38.5197 6.42496 38.6029 7.77076C38.9356 11.2194 38.9356 14.5838 38.7692 18.0324C38.6861 19.7988 38.6029 21.481 38.1039 23.1633C37.5217 25.0979 36.3574 26.3595 34.4445 26.7801C33.696 26.9483 32.8644 27.0324 32.1159 27.0324C28.0407 27.2848 23.9655 27.453 20.0566 27.5371ZM15.9815 18.9577C19.3913 17.1913 22.8012 15.425 26.211 13.5745C22.8012 11.724 19.3913 9.95767 15.9815 8.19132C15.9815 11.8081 15.9815 15.3408 15.9815 18.9577Z" fill="#00B3FF"></path></svg> 